<?xml version="1.0" standalone="no"?>
<!DOCTYPE svg PUBLIC "-//W3C//DTD SVG 20010904//EN"
 "http://www.w3.org/TR/2001/REC-SVG-20010904/DTD/svg10.dtd">
<svg version="1.0" xmlns="http://www.w3.org/2000/svg"
 width="315.000000pt" height="490.000000pt" viewBox="0 0 315.000000 490.000000"
 preserveAspectRatio="xMidYMid meet">

<g transform="translate(0.000000,490.000000) scale(0.100000,-0.100000)"
fill="#000000" stroke="none">
<path d="M0 4635 c0 -197 3 -265 12 -265 25 0 84 26 108 48 25 23 28 23 195
18 94 -3 184 -8 202 -12 17 -3 48 0 70 7 21 7 44 12 51 11 6 -2 12 1 12 5 0
14 202 16 235 2 18 -7 73 -12 140 -11 60 1 112 -3 115 -8 4 -6 20 -5 44 1 21
6 54 8 73 4 24 -4 33 -3 28 4 -4 7 4 11 19 11 14 0 26 -4 26 -8 0 -26 131 -45
145 -22 3 6 15 10 26 10 10 0 51 11 91 24 159 52 179 56 309 55 82 -1 139 3
165 12 46 15 313 14 584 -4 38 -2 232 13 242 19 4 3 23 -3 41 -14 24 -15 56
-21 125 -24 l92 -4 0 203 0 203 -1575 0 -1575 0 0 -265z m392 115 c2 -23 0
-46 -4 -53 -6 -9 -8 -9 -8 1 0 6 -7 12 -15 12 -18 0 -18 7 -4 49 15 42 26 39
31 -9z m56 33 c-22 -5 -24 -23 -3 -23 10 0 15 -11 15 -35 0 -28 -4 -35 -20
-35 -11 0 -20 4 -20 10 0 5 7 7 15 4 11 -5 15 1 15 20 0 18 -4 24 -15 20 -11
-5 -15 1 -15 20 0 21 5 26 23 25 16 -1 18 -2 5 -6z m222 -36 c0 -18 -5 -39
-10 -47 -7 -11 -10 0 -10 38 0 33 4 51 10 47 6 -3 10 -21 10 -38z m30 28 c0
-8 7 -15 15 -15 11 0 15 -11 13 -42 l-1 -43 -4 38 c-5 47 -23 49 -23 2 0 -19
-4 -35 -10 -35 -5 0 -10 25 -10 55 0 30 5 55 10 55 6 0 10 -7 10 -15z m77 9
c-3 -3 -12 -4 -19 -1 -8 3 -5 6 6 6 11 1 17 -2 13 -5z m243 -47 c0 -46 -3 -53
-20 -54 -17 -2 -20 4 -20 38 0 21 4 39 8 39 4 0 6 -16 4 -36 -3 -26 -1 -35 7
-30 6 4 11 27 11 52 0 24 2 44 5 44 3 0 5 -24 5 -53z m140 -7 c0 -27 -4 -50
-10 -50 -5 0 -10 23 -10 50 0 28 5 50 10 50 6 0 10 -22 10 -50z m549 -2 c-2
-48 -2 -49 -8 -18 -6 33 -3 70 5 70 2 0 3 -24 3 -52z m101 2 c0 -47 -2 -50
-25 -50 -22 0 -25 4 -25 34 0 19 5 38 11 42 7 4 10 -5 7 -27 -2 -20 2 -34 10
-37 10 -3 13 4 12 24 -3 40 -1 64 5 64 3 0 5 -22 5 -50z m394 -14 c1 -26 -1
-43 -5 -39 -12 12 -15 102 -3 91 3 -3 7 -27 8 -52z m633 1 c-2 -34 -6 -42 -22
-42 -14 0 -20 7 -22 25 -1 22 -1 22 4 3 7 -36 23 -27 24 15 1 20 1 41 0 45 -1
5 3 6 8 3 5 -4 9 -25 8 -49z m-2237 7 c0 -23 -4 -33 -11 -28 -6 3 -9 17 -6 30
2 13 0 24 -4 24 -5 0 -9 -13 -9 -30 0 -16 -5 -30 -11 -30 -7 0 -10 12 -7 30 3
20 0 30 -8 30 -7 0 -15 -15 -17 -32 -4 -32 -4 -32 -5 5 -2 37 -2 37 38 37 39
0 40 -1 40 -36z m27 -16 c-2 -13 -4 -5 -4 17 -1 22 1 32 4 23 2 -10 2 -28 0
-40z m171 21 c3 -27 -20 -55 -38 -44 -11 7 -14 58 -3 69 14 14 38 0 41 -25z
m62 11 c0 -11 -7 -20 -15 -20 -8 0 -15 -7 -15 -15 0 -18 16 -20 23 -2 4 9 6 9
6 0 1 -18 -18 -26 -33 -14 -7 6 -12 21 -10 33 1 13 3 26 3 31 1 4 10 7 21 7
13 0 20 -7 20 -20z m55 10 c3 -6 -1 -7 -9 -4 -9 3 -16 2 -16 -4 0 -5 7 -12 15
-16 17 -6 20 -32 4 -42 -6 -3 -16 -1 -22 5 -9 9 -8 11 6 6 21 -9 22 3 1 26 -9
10 -13 23 -9 28 8 14 22 14 30 1z m165 6 c0 -2 3 -11 6 -20 4 -12 0 -16 -15
-16 -21 0 -27 -10 -14 -23 3 -4 12 -2 20 5 11 8 12 7 7 -6 -9 -24 -38 -15 -42
12 -5 32 4 52 23 52 8 0 15 -2 15 -4z m110 -37 c0 -22 -4 -38 -8 -35 -8 5 -4
76 4 76 2 0 4 -18 4 -41z m31 9 l1 -33 11 35 c6 21 12 28 14 19 4 -18 -15 -74
-23 -66 -11 11 -22 77 -13 77 5 0 9 -15 10 -32z m56 -30 c-2 -13 -4 -3 -4 22
0 25 2 35 4 23 2 -13 2 -33 0 -45z m78 21 c0 -24 -5 -35 -17 -37 -22 -4 -35
42 -18 63 20 24 35 12 35 -26z m60 31 c3 -6 -1 -7 -9 -4 -9 3 -16 1 -16 -5 0
-7 7 -14 15 -17 19 -8 20 -44 1 -44 -8 0 -18 4 -21 10 -3 6 1 7 9 4 21 -8 20
5 0 27 -9 10 -13 23 -9 28 8 14 22 14 30 1z m155 6 c0 -2 3 -11 6 -19 3 -9 -3
-16 -15 -20 -12 -3 -21 -10 -21 -17 0 -7 8 -9 21 -5 15 5 19 4 15 -4 -10 -16
-36 -14 -42 4 -9 23 5 65 21 65 8 0 15 -2 15 -4z m69 -38 l-2 -43 -7 40 c-6
40 -15 35 -23 -15 -3 -18 -5 -15 -6 12 -1 33 7 45 32 47 4 1 6 -18 6 -41z
m235 -11 c-4 -17 -13 -27 -25 -27 -15 0 -19 7 -19 34 0 37 17 51 38 31 8 -7
11 -22 6 -38z m458 -19 c-5 -5 -7 4 -4 22 3 18 0 30 -7 30 -6 0 -11 -17 -11
-37 -1 -27 -3 -34 -9 -23 -13 22 -2 68 18 72 11 3 17 -5 19 -26 2 -15 -1 -33
-6 -38z m-653 40 c-2 -13 0 -29 5 -37 6 -9 5 -12 -5 -9 -17 6 -25 68 -9 68 6
0 10 -10 9 -22z m58 -30 c-2 -13 -4 -5 -4 17 -1 22 1 32 4 23 2 -10 2 -28 0
-40z m190 46 c-3 -3 -12 -4 -19 -1 -8 3 -5 6 6 6 11 1 17 -2 13 -5z m103 -14
c0 -12 -7 -20 -16 -20 -10 0 -14 -6 -10 -15 3 -8 1 -15 -4 -15 -6 0 -10 16
-10 35 0 28 4 35 20 35 13 0 20 -7 20 -20z m98 -17 c-1 -37 -1 -37 -5 -5 -2
17 -8 32 -14 32 -5 0 -10 -15 -11 -32 l-1 -33 -4 33 c-5 40 -23 42 -23 2 0
-16 -4 -30 -10 -30 -11 0 -14 53 -3 63 3 4 21 7 40 7 32 0 33 -1 31 -37z m150
6 c3 -27 -20 -55 -38 -44 -11 7 -14 58 -3 69 14 14 38 0 41 -25z m121 9 c-1
-17 -2 -19 -6 -5 -7 29 -23 19 -24 -15 -1 -25 -3 -27 -6 -10 -6 31 3 52 22 52
9 0 15 -8 14 -22z m111 -12 c0 -31 -16 -50 -34 -43 -10 4 -15 17 -15 34 l2 28
4 -27 c2 -16 9 -28 14 -28 16 0 23 32 11 51 -10 15 -9 17 3 13 8 -4 15 -16 15
-28z m98 -3 c2 -18 -1 -33 -7 -33 -6 0 -8 12 -4 30 3 19 1 30 -6 30 -10 0 -15
-19 -12 -47 1 -6 -3 -14 -9 -18 -6 -4 -10 9 -10 33 0 34 3 39 23 38 17 -1 23
-8 25 -33z m32 -3 c0 -22 -2 -40 -4 -40 -2 0 -6 18 -8 40 -2 22 0 40 4 40 5 0
8 -18 8 -40z m41 -30 c5 0 9 17 9 37 0 45 13 36 15 -11 2 -28 -1 -33 -19 -32
-17 1 -21 8 -22 36 -1 35 -1 35 3 3 2 -18 8 -33 14 -33z m56 8 c-2 -13 -4 -3
-4 22 0 25 2 35 4 23 2 -13 2 -33 0 -45z m33 22 c0 -22 -2 -40 -4 -40 -2 0 -6
18 -8 40 -2 22 0 40 4 40 5 0 8 -18 8 -40z m113 33 c-15 -5 -18 -63 -4 -63 5
0 12 10 14 23 3 19 4 19 3 -3 -1 -34 -40 -35 -44 -2 -4 25 13 52 32 51 7 0 6
-2 -1 -6z m-1376 -25 c-3 -8 -6 -5 -6 6 -1 11 2 17 5 13 3 -3 4 -12 1 -19z
m-8 -33 c0 -5 -4 -3 -9 5 -5 8 -9 22 -9 30 0 16 17 -16 18 -35z m430 6 c-2 -6
-10 2 -17 17 -11 25 -11 25 4 10 9 -9 15 -21 13 -27z m481 5 c0 -2 -7 -9 -15
-16 -13 -11 -14 -10 -9 4 5 14 24 23 24 12z"/>
<path d="M368 4750 c-7 -24 -3 -38 8 -28 3 4 4 17 2 30 l-3 23 -7 -25z"/>
<path d="M760 4726 c0 -14 5 -28 10 -31 6 -4 10 7 10 24 0 17 -4 31 -10 31 -5
0 -10 -11 -10 -24z"/>
<path d="M830 4740 c0 -5 5 -10 10 -10 6 0 10 5 10 10 0 6 -4 10 -10 10 -5 0
-10 -4 -10 -10z"/>
<path d="M1055 4740 c-3 -5 1 -10 10 -10 9 0 13 5 10 10 -3 6 -8 10 -10 10 -2
0 -7 -4 -10 -10z"/>
<path d="M1330 4720 c0 -16 5 -30 10 -30 6 0 10 14 10 30 0 17 -4 30 -10 30
-5 0 -10 -13 -10 -30z"/>
<path d="M1550 4740 c0 -5 5 -10 11 -10 5 0 7 5 4 10 -3 6 -8 10 -11 10 -2 0
-4 -4 -4 -10z"/>
<path d="M1847 4743 c-11 -10 -8 -53 3 -53 6 0 10 14 10 30 0 31 -2 35 -13 23z"/>
<path d="M2000 4730 c0 -5 5 -10 10 -10 6 0 10 5 10 10 0 6 -4 10 -10 10 -5 0
-10 -4 -10 -10z"/>
<path d="M2240 4709 c0 -17 5 -29 11 -27 6 2 10 7 10 11 -1 4 -1 16 -1 27 0
11 -4 20 -10 20 -5 0 -10 -14 -10 -31z"/>
<path d="M686 4415 c-10 -8 -44 -19 -75 -25 -31 -6 -63 -13 -72 -16 -9 -3 -24
2 -33 11 -14 14 -18 14 -44 1 -31 -16 -72 -18 -72 -3 0 5 -6 5 -13 -2 -10 -8
-17 -7 -25 1 -9 9 -12 9 -12 0 0 -7 -11 -12 -25 -12 -14 0 -25 5 -25 11 0 5
-5 7 -10 4 -6 -4 -16 -2 -23 3 -13 11 -102 -1 -181 -24 -26 -8 -55 -14 -62
-14 -12 0 -14 -111 -14 -705 l0 -705 55 6 c34 4 60 3 68 -4 25 -21 111 -44
143 -39 22 4 37 1 45 -9 16 -19 29 -18 29 4 0 17 11 21 62 25 9 1 15 4 13 7
-6 10 20 38 40 43 15 4 14 5 -7 6 -15 0 -29 5 -33 10 -8 14 28 31 45 21 17
-11 40 17 33 40 -3 8 2 5 11 -7 19 -26 46 -30 46 -8 0 8 -9 15 -20 15 -11 0
-20 4 -20 10 0 5 6 9 13 7 6 -1 11 3 10 10 -1 6 8 10 22 8 14 -1 25 1 25 4 0
4 18 7 39 6 21 0 37 -3 34 -7 -8 -14 18 -8 34 7 11 11 19 13 28 5 9 -8 14 -6
19 6 4 9 13 14 21 10 8 -3 15 -1 15 4 0 6 7 10 16 10 8 0 13 4 10 9 -3 5 1 14
9 21 8 7 15 9 15 5 0 -5 10 4 23 19 17 19 22 36 19 56 -3 19 0 30 7 30 7 0 9
5 6 10 -4 6 -1 18 6 27 12 14 14 13 20 -8 7 -23 7 -23 8 4 1 21 -5 30 -19 34
-11 3 -18 9 -15 13 3 5 1 11 -4 15 -6 3 -7 13 -4 22 5 12 3 14 -8 8 -10 -7 -9
-2 3 17 12 18 14 29 7 33 -6 4 -8 13 -5 21 3 8 0 14 -7 14 -7 0 -8 3 -2 8 6 4
16 17 23 30 10 19 10 22 -4 22 -11 0 -14 8 -12 33 3 27 7 32 33 35 38 5 64 39
30 39 -8 0 -15 -4 -15 -9 0 -17 -28 -7 -33 12 -4 15 0 20 15 20 16 0 18 3 9
14 -9 10 -8 16 4 26 15 12 11 35 -5 25 -5 -3 -5 9 1 27 5 18 9 35 9 37 0 2 6
-2 13 -8 8 -6 17 -8 20 -4 4 3 7 2 7 -3 0 -5 12 -10 28 -9 22 0 26 -4 24 -22
-4 -25 6 -27 71 -17 30 5 35 9 26 20 -9 11 -6 14 15 14 14 0 26 -4 26 -10 0
-5 4 -10 8 -10 5 0 9 7 9 15 0 8 -4 12 -8 9 -4 -2 -10 0 -13 5 -4 5 6 11 21
13 18 2 32 12 38 26 5 12 15 20 20 18 6 -2 19 2 30 10 26 19 30 18 43 -12 7
-14 8 -23 3 -20 -5 3 -20 1 -33 -4 -23 -10 -23 -10 0 -6 17 3 22 0 22 -17 0
-18 2 -20 11 -7 8 11 12 12 16 2 2 -7 11 -19 19 -26 8 -8 14 -20 14 -26 0 -6
4 -9 8 -6 5 3 62 8 128 12 105 6 122 10 142 29 22 22 22 55 0 55 -6 0 -8 7 -4
15 3 8 0 15 -7 15 -8 0 -6 4 3 10 12 8 12 10 1 10 -8 0 -11 3 -8 6 4 4 13 1
21 -5 8 -7 20 -10 25 -6 7 3 8 0 5 -10 -5 -11 -2 -14 12 -8 12 4 15 3 10 -5
-9 -14 3 -15 24 -2 13 9 13 10 0 10 -12 0 -12 2 -1 9 9 6 10 11 2 15 -6 4 -9
12 -6 17 4 5 1 9 -4 9 -6 0 -11 9 -11 21 0 12 -4 17 -11 14 -6 -4 -13 2 -16
14 -3 12 -16 24 -29 27 -23 6 -34 24 -14 24 21 0 9 18 -21 30 -22 10 -27 15
-17 21 10 7 8 9 -5 9 -10 0 -15 5 -12 10 3 6 -3 10 -15 10 -12 0 -18 5 -15 10
3 6 0 10 -7 10 -9 0 -9 3 2 10 12 8 12 10 -5 10 -17 0 -17 2 -5 10 13 8 12 10
-2 10 -10 0 -18 -4 -18 -9 0 -5 -14 -12 -30 -16 -25 -6 -29 -9 -19 -21 14 -17
-2 -19 -19 -2 -9 9 -12 8 -12 -5 0 -9 -6 -17 -14 -17 -9 0 -12 7 -9 21 5 19 4
19 -20 -5 -27 -27 -79 -36 -73 -13 1 6 1 9 -1 5 -3 -5 -14 -8 -24 -8 -11 0
-17 -4 -14 -10 3 -6 -1 -7 -9 -4 -9 3 -16 1 -16 -5 0 -6 -7 -11 -15 -11 -9 0
-12 6 -8 18 5 16 5 16 -8 0 -8 -9 -27 -18 -44 -20 -16 -2 -33 -7 -37 -13 -5
-7 -10 -7 -15 0 -5 6 -33 11 -62 12 -71 3 -96 13 -61 24 22 7 21 8 -10 6 -22
-1 -35 3 -36 11 -1 6 -2 20 -3 30 -2 15 -3 14 -11 -3 -8 -19 -9 -19 -9 3 -1
12 3 22 8 22 5 0 7 9 4 19 -4 14 1 21 19 24 20 4 20 4 -5 6 -18 1 -27 6 -24
14 2 6 11 11 18 9 8 -2 2 9 -13 23 -32 30 -35 37 -10 28 11 -4 8 1 -8 15 -14
12 -20 21 -14 22 7 0 14 7 17 14 4 10 1 13 -9 9 -7 -3 -14 0 -14 6 0 6 5 11
11 11 8 0 7 5 -1 15 -11 13 -10 14 6 8 16 -6 17 -4 6 9 -7 8 -10 23 -6 32 8
20 -2 23 -106 30 -65 4 -90 2 -104 -9z m-369 -61 c19 -5 21 -10 12 -25 -7 -14
-6 -19 3 -19 10 0 10 -2 1 -8 -7 -4 -17 -19 -22 -32 -9 -22 -11 -20 -9 20 1
30 -2 44 -10 43 -7 -2 -12 4 -12 12 0 17 4 18 37 9z m110 -10 c4 -10 -1 -20
-11 -26 -9 -5 -14 -13 -11 -19 4 -5 -1 -9 -10 -9 -9 0 -14 -4 -10 -9 3 -5 1
-12 -5 -16 -5 -3 -10 -16 -10 -27 0 -26 -9 -19 -15 11 -2 12 1 21 8 21 8 0 8
3 2 8 -18 13 -12 64 10 73 31 12 45 10 52 -7z m-11 -89 c-23 -18 -36 -19 -36
-4 0 5 5 7 10 4 6 -3 10 -1 10 4 0 6 8 11 18 11 15 -1 15 -2 -2 -15z m14 -19
c0 -3 -4 -8 -10 -11 -5 -3 -10 -1 -10 4 0 6 5 11 10 11 6 0 10 -2 10 -4z
m1030 -226 c8 -4 32 -15 54 -26 l38 -18 -31 -9 c-18 -4 -34 -14 -37 -22 -5
-13 -9 -13 -26 -1 -11 8 -34 13 -52 11 -80 -10 -199 -27 -209 -29 -7 -2 -9 -1
-5 1 3 2 2 18 -4 34 -9 25 -7 32 7 43 10 7 31 13 48 14 16 0 32 3 35 7 8 8
163 4 182 -5z m-307 -69 c-2 -6 2 -11 7 -11 6 0 10 8 11 18 0 11 2 12 6 4 6
-15 -16 -44 -30 -39 -6 2 -12 13 -14 26 -2 15 1 21 9 18 7 -2 12 -10 11 -16z
m395 -8 c6 -19 -25 -16 -32 3 -4 11 -1 14 11 12 9 -2 18 -9 21 -15z m39 -49
c-3 -3 -12 -4 -19 -1 -8 3 -5 6 6 6 11 1 17 -2 13 -5z m-544 -119 c4 -8 2 -17
-3 -20 -6 -4 -10 3 -10 14 0 25 6 27 13 6z m-358 -653 c-3 -3 -11 0 -18 7 -9
10 -8 11 6 5 10 -3 15 -9 12 -12z m-281 -157 c3 -9 0 -15 -9 -15 -8 0 -15 7
-15 15 0 8 4 15 9 15 5 0 11 -7 15 -15z"/>
<path d="M3125 4192 c-12 -17 -13 -22 -4 -15 9 7 19 10 22 6 4 -3 7 3 7 15 0
27 -1 27 -25 -6z"/>
<path d="M1488 4173 c7 -3 16 -2 19 1 4 3 -2 6 -13 5 -11 0 -14 -3 -6 -6z"/>
<path d="M2250 4161 c0 -6 -7 -11 -15 -11 -8 0 -15 -4 -15 -10 0 -5 -13 -10
-28 -10 -17 0 -33 -8 -42 -22 -8 -12 -30 -36 -48 -55 -18 -18 -31 -37 -28 -42
4 -5 0 -15 -7 -23 -8 -7 -19 -27 -25 -43 -8 -23 -11 -25 -12 -10 -2 38 -18 -7
-25 -70 -12 -111 -14 -161 -5 -140 9 21 9 21 15 -7 2 -11 -3 -18 -13 -18 -14
0 -14 -2 -3 -9 8 -5 11 -16 8 -25 -4 -9 -1 -16 6 -17 7 0 3 -4 -8 -9 -11 -5
-14 -9 -7 -9 7 -1 11 -5 8 -10 -3 -5 1 -11 9 -15 8 -3 15 -17 15 -31 0 -15 8
-34 17 -43 15 -16 16 -15 10 10 -6 23 -4 25 13 21 23 -6 26 -19 8 -26 -7 -3
-3 -6 9 -6 17 -1 20 3 15 21 -4 17 -2 20 11 15 14 -5 17 0 18 31 0 29 2 33 8
17 5 -11 6 -24 4 -28 -3 -5 4 -3 15 4 12 7 25 9 29 5 4 -5 2 -11 -4 -13 -7 -3
-13 -9 -13 -14 0 -6 4 -8 9 -5 5 4 12 0 15 -6 3 -7 4 11 2 40 -4 43 -2 52 12
53 14 0 13 2 -3 9 -16 6 -17 9 -5 14 11 5 15 21 14 66 -1 33 4 64 10 69 8 6
11 0 12 -20 1 -16 -3 -29 -9 -29 -6 0 -7 -3 -4 -6 4 -4 13 -1 22 6 8 7 15 9
15 5 0 -5 8 2 19 13 10 12 30 22 44 22 14 0 33 7 41 16 15 14 35 22 81 28 11
2 20 4 20 6 0 1 17 3 38 4 37 3 41 -2 38 -36 -3 -25 28 -74 53 -87 33 -16 147
-22 191 -9 22 6 59 11 83 10 23 0 42 4 42 9 0 6 5 7 11 3 8 -5 8 -9 -1 -14 -9
-5 -9 -9 -1 -14 6 -4 16 -4 21 -1 6 3 10 1 10 -4 0 -6 5 -11 10 -11 6 0 10 7
10 15 0 17 16 20 25 5 7 -12 26 -14 24 -2 -4 21 3 29 24 29 42 1 48 3 41 15
-4 6 -3 8 4 4 6 -3 22 -2 36 4 l26 10 0 180 c0 137 -3 180 -12 180 -9 0 -8 4
2 10 12 8 11 10 -5 10 -12 0 -27 -6 -33 -12 -10 -10 -15 -10 -22 2 -7 12 -11
10 -18 -9 -7 -21 -10 -22 -15 -7 -6 15 -9 15 -36 1 -39 -20 -58 -19 -64 3 -4
16 -5 16 -6 0 0 -10 -6 -18 -12 -18 -5 0 -7 -6 -3 -12 5 -10 4 -10 -5 -2 -7 6
-13 20 -14 32 0 11 -4 19 -8 17 -3 -3 -4 -16 -1 -30 6 -32 -10 -32 -52 0 -36
27 -46 31 -46 14 0 -5 5 -7 12 -3 7 4 8 3 4 -4 -4 -7 -14 -12 -22 -12 -8 0
-12 5 -9 10 4 6 -13 10 -45 10 -28 0 -49 -4 -46 -9 3 -5 -5 -8 -18 -7 -20 1
-22 4 -13 15 10 12 9 12 -10 3 -12 -7 -24 -17 -26 -24 -3 -8 -6 -6 -6 5 -1 9
-6 17 -12 17 -5 0 -7 -5 -4 -10 8 -13 -33 -9 -54 4 -11 7 -12 6 -6 -5 8 -12 6
-12 -8 0 -15 12 -17 11 -18 -10 l0 -24 -9 23 c-7 16 -18 22 -39 22 -16 0 -33
5 -37 11 -5 8 -8 8 -14 0 -3 -7 -14 -9 -23 -5 -9 3 -15 10 -12 14 7 11 -28 7
-36 -4 -4 -4 -16 -3 -28 3 -11 7 -21 8 -21 2 0 -5 -7 -11 -15 -15 -8 -3 -14 0
-12 6 1 6 -4 13 -10 15 -7 3 -13 0 -13 -6z m595 -51 c3 -6 -1 -7 -9 -4 -18 7
-21 14 -7 14 6 0 13 -4 16 -10z m192 4 c-3 -3 -12 -4 -19 -1 -8 3 -5 6 6 6 11
1 17 -2 13 -5z m-467 -8 c0 -3 -4 -8 -10 -11 -5 -3 -10 -1 -10 4 0 6 5 11 10
11 6 0 10 -2 10 -4z m12 -82 c12 7 21 8 26 1 10 -14 28 -17 92 -18 30 0 49 -2
42 -5 -10 -3 -10 -7 -1 -18 25 -30 3 -41 -98 -48 -97 -7 -156 -13 -160 -16 -2
-2 -6 -3 -10 -5 -5 -1 -28 -11 -53 -23 -25 -12 -50 -22 -57 -22 -6 0 -16 -12
-21 -27 -10 -26 -10 -25 -8 13 1 40 27 92 53 107 7 5 10 13 7 19 -4 7 -2 8 5
4 6 -4 17 -3 24 2 21 17 111 40 126 32 8 -4 23 -3 33 4z m196 -69 c-3 -3 -9 2
-12 12 -6 14 -5 15 5 6 7 -7 10 -15 7 -18z m-468 -110 c0 -8 -4 -15 -8 -15 -5
0 -9 7 -9 15 0 8 4 15 9 15 4 0 8 -7 8 -15z m-128 -177 c6 -18 -3 -58 -13 -58
-5 0 -9 16 -9 35 0 34 14 48 22 23z m-136 -53 c10 -26 -1 -35 -13 -10 -6 14
-7 25 -2 25 5 0 12 -7 15 -15z m29 -25 c3 -5 1 -10 -4 -10 -6 0 -11 5 -11 10
0 6 2 10 4 10 3 0 8 -4 11 -10z"/>
<path d="M2968 4163 c7 -3 16 -2 19 1 4 3 -2 6 -13 5 -11 0 -14 -3 -6 -6z"/>
<path d="M1340 4116 c0 -2 7 -6 15 -10 8 -3 15 -1 15 4 0 6 -7 10 -15 10 -8 0
-15 -2 -15 -4z"/>
<path d="M2050 4000 c-9 -6 -10 -10 -3 -10 6 0 15 5 18 10 8 12 4 12 -15 0z"/>
<path d="M1057 3723 c-4 -3 -15 -7 -25 -8 -9 0 -18 -4 -19 -8 -7 -17 -2 -27
12 -27 8 0 15 5 15 10 0 6 5 10 11 10 5 0 7 -4 4 -10 -9 -15 4 -12 21 5 9 8
12 19 9 25 -7 12 -19 13 -28 3z"/>
<path d="M1464 3718 c-5 -7 -2 -9 9 -5 9 3 18 1 21 -6 2 -7 5 -4 5 6 1 19 -24
23 -35 5z"/>
<path d="M2865 3714 c-10 -8 -14 -14 -9 -14 6 0 15 5 22 12 9 9 12 9 12 0 0
-7 5 -12 10 -12 14 0 12 17 -3 23 -7 3 -21 -1 -32 -9z"/>
<path d="M913 3705 c-13 -10 -11 -11 15 -7 18 2 32 8 32 11 0 12 -29 9 -47 -4z"/>
<path d="M1491 3682 c0 -7 -6 -10 -13 -6 -8 5 -9 2 -5 -10 8 -19 -25 -36 -58
-30 -31 6 -56 -6 -53 -24 3 -16 -1 -18 -37 -21 -20 -1 -7 -31 14 -31 14 0 14
2 1 10 -13 8 -12 10 3 10 9 0 17 -4 17 -8 0 -14 63 -1 91 19 15 11 37 23 50
28 13 5 18 10 12 10 -7 1 -13 5 -13 10 0 6 21 12 48 14 l47 3 -47 2 c-35 2
-48 6 -51 20 -3 9 -5 11 -6 4z"/>
<path d="M2900 3679 c0 -5 11 -9 25 -9 14 0 25 2 25 4 0 2 -11 6 -25 8 -14 3
-25 1 -25 -3z"/>
<path d="M2973 3683 c9 -2 23 -2 30 0 6 3 -1 5 -18 5 -16 0 -22 -2 -12 -5z"/>
<path d="M1030 3660 c0 -5 5 -10 10 -10 6 0 10 5 10 10 0 6 -4 10 -10 10 -5 0
-10 -4 -10 -10z"/>
<path d="M1446 3662 c-3 -5 1 -9 9 -9 8 0 12 4 9 9 -3 4 -7 8 -9 8 -2 0 -6 -4
-9 -8z"/>
<path d="M2924 3645 c-18 -14 -18 -14 4 -8 15 3 22 1 22 -8 0 -11 2 -11 9 1
19 29 -4 39 -35 15z"/>
<path d="M947 3633 c-11 -11 -8 -20 8 -20 8 0 12 4 9 8 -2 4 2 10 8 12 9 4 8
6 -3 6 -9 1 -19 -2 -22 -6z"/>
<path d="M2844 3632 c-9 -6 -11 -26 -5 -62 2 -10 58 -5 58 6 0 6 -12 9 -26 7
l-26 -3 28 11 c15 6 27 15 27 20 0 12 -7 11 -30 -1 -25 -13 -37 5 -13 19 10 6
14 10 8 11 -5 0 -15 -4 -21 -8z"/>
<path d="M1008 3623 c6 -2 18 -2 25 0 6 3 1 5 -13 5 -14 0 -19 -2 -12 -5z"/>
<path d="M1135 3620 c4 -6 11 -8 16 -5 14 9 11 15 -7 15 -8 0 -12 -5 -9 -10z"/>
<path d="M1295 3620 c3 -5 8 -10 11 -10 2 0 4 5 4 10 0 6 -5 10 -11 10 -5 0
-7 -4 -4 -10z"/>
<path d="M1320 3626 c0 -2 7 -6 15 -10 8 -3 15 -1 15 4 0 6 -7 10 -15 10 -8 0
-15 -2 -15 -4z"/>
<path d="M2917 3603 c3 -7 6 -13 8 -13 2 0 5 6 8 13 3 8 -1 14 -8 14 -7 0 -11
-6 -8 -14z"/>
<path d="M2210 3589 c0 -5 9 -9 20 -9 11 0 20 2 20 4 0 2 -9 6 -20 9 -11 3
-20 1 -20 -4z"/>
<path d="M2767 3567 c3 -5 -5 -6 -18 -2 -18 6 -21 4 -13 -5 13 -13 79 -10 79
5 0 6 -12 10 -27 10 -15 1 -24 -3 -21 -8z"/>
<path d="M1280 3566 c0 -2 7 -6 15 -10 8 -3 15 -1 15 4 0 6 -7 10 -15 10 -8 0
-15 -2 -15 -4z"/>
<path d="M2146 3533 c-6 -14 -5 -15 5 -6 7 7 10 15 7 18 -3 3 -9 -2 -12 -12z"/>
<path d="M1015 3531 c-3 -5 0 -13 6 -17 7 -4 9 -3 5 4 -3 5 0 13 6 15 9 4 10
6 1 6 -6 1 -14 -3 -18 -8z"/>
<path d="M1375 3530 c3 -5 8 -10 11 -10 2 0 4 5 4 10 0 6 -5 10 -11 10 -5 0
-7 -4 -4 -10z"/>
<path d="M2140 3501 c0 -6 4 -13 10 -16 6 -3 7 1 4 9 -7 18 -14 21 -14 7z"/>
<path d="M1051 3324 c0 -11 3 -14 6 -6 3 7 2 16 -1 19 -3 4 -6 -2 -5 -13z"/>
<path d="M810 3131 c0 -4 10 -8 22 -7 15 1 24 -6 29 -24 4 -14 8 -18 9 -10 1
8 3 23 5 33 3 13 -4 17 -31 17 -19 0 -34 -4 -34 -9z"/>
<path d="M895 3130 c3 -5 8 -10 11 -10 2 0 4 5 4 10 0 6 -5 10 -11 10 -5 0 -7
-4 -4 -10z"/>
<path d="M1370 3106 c7 -7 13 -7 20 0 6 6 3 10 -10 10 -13 0 -16 -4 -10 -10z"/>
<path d="M694 3053 c7 -21 5 -22 -33 -18 -41 4 -62 -7 -40 -21 7 -4 39 -8 72
-9 49 -2 62 -6 68 -21 6 -16 8 -16 8 -2 1 9 4 24 8 33 5 15 1 17 -30 13 -21
-2 -37 0 -37 4 0 4 6 8 14 8 8 0 18 5 22 12 5 8 2 9 -11 5 -9 -4 -24 -2 -33 5
-13 11 -14 10 -8 -9z"/>
<path d="M790 3015 c0 -27 2 -46 4 -44 8 8 10 78 3 85 -4 4 -7 -14 -7 -41z"/>
<path d="M1715 3036 c-44 -12 -105 -34 -135 -49 -47 -23 -71 -27 -170 -30
-107 -4 -209 -23 -254 -48 -10 -6 -73 -13 -140 -16 -67 -2 -152 -11 -191 -19
-38 -8 -110 -15 -160 -16 -422 -4 -418 -4 -463 24 -30 19 -52 23 -119 24 l-83
1 0 -1454 0 -1453 1575 0 1575 0 0 1494 0 1494 -37 -8 c-21 -5 -73 -4 -122 2
-64 8 -118 7 -212 -2 -75 -8 -157 -10 -205 -6 -43 4 -116 7 -161 6 -63 -1 -97
4 -145 21 -88 31 -305 42 -336 17 -9 -8 -21 -5 -44 12 -42 31 -78 32 -173 6z
m-618 -235 c68 -31 73 -51 73 -268 0 -163 -2 -193 -18 -222 -34 -64 -113 -87
-189 -56 -71 29 -78 49 -81 235 -2 91 -1 184 3 207 15 100 113 148 212 104z
m474 -7 c36 -18 68 -83 69 -137 l0 -38 -46 3 c-47 3 -47 3 -51 43 -5 47 -18
65 -48 65 -43 0 -50 -23 -54 -182 -4 -184 1 -216 36 -224 41 -11 58 7 61 62 2
27 7 51 12 54 5 3 28 4 51 2 l42 -4 -6 -52 c-10 -97 -46 -137 -132 -144 -66
-5 -108 16 -135 68 -18 35 -20 59 -20 209 0 194 11 240 64 272 38 23 115 25
157 3z m259 -49 c-64 -65 -87 -61 -53 10 15 31 21 35 57 35 l40 0 -44 -45z
m28 -81 c13 -8 27 -26 32 -40 13 -34 13 -283 0 -321 -21 -59 -120 -84 -173
-43 -38 30 -45 69 -40 225 4 134 5 141 30 167 38 40 100 45 151 12z m238 1
c52 -21 64 -61 63 -202 0 -65 -5 -134 -12 -153 -17 -50 -63 -71 -151 -69 l-69
2 6 146 c4 80 7 179 7 219 l0 72 60 0 c33 0 76 -7 96 -15z m180 -135 c0 -80
-2 -178 -4 -217 l-4 -73 -34 0 -34 0 0 108 c0 59 3 158 7 220 l6 113 31 -3 31
-3 1 -145z m211 130 c22 -13 35 -31 43 -60 13 -49 8 -60 -31 -60 -24 0 -29 4
-29 24 0 27 -23 56 -44 56 -31 0 -37 -27 -34 -171 3 -142 3 -144 26 -147 34
-5 52 15 52 59 0 35 -3 39 -25 39 -21 0 -25 5 -25 30 l0 30 60 0 60 0 0 -110
c0 -114 -5 -126 -40 -95 -15 14 -18 14 -30 0 -20 -24 -84 -19 -117 9 l-28 24
0 167 0 167 33 29 c39 35 82 38 129 9z m257 6 c47 -20 56 -55 56 -221 0 -128
-2 -145 -20 -168 -40 -51 -118 -58 -170 -15 -25 20 -25 21 -25 188 0 154 2
170 20 190 37 41 83 49 139 26z m-1788 -605 c91 -41 108 -102 102 -368 -5
-210 -13 -250 -61 -301 -34 -36 -113 -54 -228 -50 l-100 3 2 360 c1 198 3 363
6 368 2 4 57 7 121 7 92 0 126 -4 158 -19z m707 -68 c9 -49 28 -161 43 -250
15 -89 31 -160 35 -158 4 3 10 22 13 42 33 196 82 439 91 446 5 4 31 6 58 5
35 -1 47 -6 47 -17 0 -14 -82 -408 -131 -628 l-21 -93 -62 0 -62 0 -68 348
c-38 191 -71 357 -74 370 -4 21 -1 22 56 22 l59 0 16 -87z m-358 -65 c3 -13
14 -77 25 -143 12 -66 30 -172 41 -235 11 -63 24 -136 28 -162 l8 -48 -48 0
-48 0 -6 48 c-12 96 -9 92 -70 92 -60 0 -59 1 -70 -87 l-7 -53 -49 0 c-27 0
-49 4 -49 8 0 4 9 50 19 102 11 52 37 186 57 298 l38 202 63 0 c57 0 63 -2 68
-22z m753 -285 l2 -303 -50 0 -51 0 1 299 c1 164 4 302 8 305 3 4 24 6 47 4
l40 -3 3 -302z m670 280 c38 -28 62 -80 62 -135 l0 -48 -50 0 -50 0 0 41 c0
56 -15 79 -49 79 -51 0 -56 -16 -59 -221 -3 -179 -3 -188 17 -208 47 -47 91
-16 91 65 l0 54 50 0 50 0 0 -52 c-1 -126 -82 -195 -194 -167 -55 14 -92 51
-104 105 -9 40 -6 346 4 410 5 33 44 77 84 93 37 16 117 7 148 -16z m-448
-151 c31 -89 60 -165 64 -169 3 -3 6 71 6 165 l0 172 45 0 45 0 0 -301 0 -300
-47 3 -47 3 -61 177 c-33 97 -63 179 -65 182 -3 2 -5 -12 -5 -32 -1 -20 -2
-103 -3 -184 l-2 -148 -47 0 -46 0 6 273 c4 149 7 285 7 300 0 27 2 28 46 25
l46 -3 58 -163z m680 0 c0 -93 -3 -230 -7 -305 l-6 -137 -50 0 -50 0 7 61 c3
34 6 172 6 305 l0 244 50 0 50 0 0 -168z m-1764 -633 c58 -18 72 -93 25 -140
-26 -26 -36 -29 -88 -28 -32 0 -52 3 -45 6 16 6 17 160 1 165 -6 2 9 5 32 6
24 1 58 -3 75 -9z m622 -27 c2 -13 -2 -30 -8 -38 -9 -9 -9 -14 -2 -14 6 0 16
-9 22 -21 14 -25 -11 -69 -38 -69 -16 1 -16 1 1 11 34 20 15 79 -26 79 -16 0
-19 -6 -15 -45 2 -35 0 -45 -12 -45 -12 0 -15 16 -15 85 l0 86 45 -3 c38 -3
45 -6 48 -26z m-437 -104 c17 -37 17 -38 -2 -38 -11 0 -18 3 -16 8 3 4 1 17
-4 30 -10 26 -44 29 -58 5 -12 -20 -14 -13 -5 11 3 9 15 16 25 16 10 0 19 7
19 15 0 8 -4 15 -10 15 -5 0 -10 -5 -10 -12 0 -6 -2 -9 -5 -6 -3 3 0 18 6 34
l11 29 16 -35 c9 -19 24 -52 33 -72z m123 43 l48 -54 -3 57 c-3 33 0 56 6 56
6 0 9 -28 7 -70 -2 -38 -8 -70 -13 -70 -5 0 -9 3 -9 8 -1 4 -21 30 -46 57
l-46 50 4 -58 c2 -33 -1 -57 -7 -57 -6 0 -10 30 -10 70 0 46 4 70 11 68 6 -2
32 -27 58 -57z m450 53 c21 -8 20 -44 -1 -59 -15 -11 -15 -15 6 -44 12 -17 18
-31 12 -31 -6 0 -21 16 -33 35 -29 44 -41 44 -36 0 2 -20 0 -35 -7 -35 -6 0
-9 23 -7 61 3 44 0 64 -10 70 -15 10 51 13 76 3z m190 -15 c32 -25 34 -66 6
-97 -12 -12 -24 -22 -27 -22 -3 0 1 8 10 18 35 38 15 95 -38 111 -29 9 -30 9
-4 10 15 1 38 -8 53 -20z m76 9 c0 -24 33 -97 41 -92 12 7 11 -7 -1 -26 -11
-18 -12 -18 -40 55 -13 33 -29 63 -34 67 -6 4 -1 8 12 8 12 0 22 -5 22 -12z
m60 -3 c0 -8 5 -15 11 -15 5 0 8 -4 4 -9 -5 -9 14 -61 26 -71 3 -3 3 -14 -1
-25 -6 -17 -9 -15 -20 17 -8 20 -17 35 -22 32 -4 -3 -5 2 -2 10 3 8 -2 28 -11
45 -14 27 -14 31 0 31 8 0 15 -7 15 -15z m100 11 c0 -11 -19 -15 -25 -6 -3 5
1 10 9 10 9 0 16 -2 16 -4z m99 -63 l41 -48 0 53 c0 28 3 52 8 52 4 0 5 -33 4
-72 -4 -70 -5 -72 -20 -52 -10 11 -34 40 -54 64 l-38 44 0 -56 c0 -36 5 -58
13 -61 6 -3 -1 -6 -18 -6 -20 0 -26 2 -17 8 10 6 13 27 10 74 -3 58 -1 64 14
56 9 -5 35 -30 57 -56z m-435 32 c-22 -34 -11 -71 29 -96 17 -12 24 -18 14
-15 -10 3 -22 6 -27 6 -18 0 -40 33 -40 61 0 30 18 69 33 69 4 0 0 -11 -9 -25z
m307 -22 c-12 -20 -14 -14 -5 12 4 9 9 14 11 11 3 -2 0 -13 -6 -23z m-1056
-73 c3 -5 -1 -10 -10 -10 -9 0 -13 5 -10 10 3 6 8 10 10 10 2 0 7 -4 10 -10z
m670 -292 c8 -25 18 -34 50 -44 l40 -12 -32 -1 c-18 -1 -33 -4 -33 -7 0 -11
23 -50 43 -71 l20 -22 -27 -12 c-14 -7 -26 -17 -26 -22 0 -14 -115 0 -151 19
l-31 16 21 19 c21 20 23 25 25 69 1 14 6 24 13 23 16 -4 37 34 23 42 -15 9 11
34 35 35 15 0 24 -9 30 -32z m-148 -250 c-3 -7 -5 -2 -5 12 0 14 2 19 5 13 2
-7 2 -19 0 -25z m47 2 c-6 -6 -10 -3 -10 10 0 13 4 16 10 10 7 -7 7 -13 0 -20z
m49 10 c-3 -11 -7 -20 -8 -20 -1 0 -5 9 -8 20 -3 12 0 20 8 20 8 0 11 -8 8
-20z m70 -5 c-7 -21 -13 -19 -13 6 0 11 4 18 10 14 5 -3 7 -12 3 -20z m54 -7
c-3 -7 -5 -2 -5 12 0 14 2 19 5 13 2 -7 2 -19 0 -25z m-84 8 c4 -10 1 -13 -8
-9 -8 3 -12 9 -9 14 7 12 11 11 17 -5z m54 -1 c0 -8 -4 -15 -9 -15 -10 0 -11
14 -1 23 9 10 10 9 10 -8z m70 -7 c-3 -8 -6 -5 -6 6 -1 11 2 17 5 13 3 -3 4
-12 1 -19z m-217 -42 c0 -3 -4 -8 -10 -11 -5 -3 -10 -1 -10 4 0 6 5 11 10 11
6 0 10 -2 10 -4z m156 -8 c4 -7 3 -8 -4 -4 -7 4 -12 2 -12 -5 0 -7 -3 -10 -6
-6 -6 5 3 27 11 27 2 0 7 -5 11 -12z m-36 -8 c0 -5 -2 -10 -4 -10 -3 0 -8 5
-11 10 -3 6 -1 10 4 10 6 0 11 -4 11 -10z"/>
<path d="M980 2704 c-6 -14 -10 -97 -10 -185 0 -146 2 -161 20 -179 11 -11 27
-20 35 -20 8 0 24 9 35 20 18 18 20 33 20 186 0 95 -4 174 -10 185 -8 13 -21
19 -46 19 -28 0 -36 -5 -44 -26z"/>
<path d="M1754 2607 c-2 -7 -3 -78 -2 -157 l3 -145 24 -3 c43 -6 51 19 51 159
0 70 -3 134 -6 143 -7 19 -62 22 -70 3z"/>
<path d="M2008 2495 c-1 -69 -2 -140 -2 -157 -1 -28 3 -33 26 -36 47 -6 58 26
58 165 0 132 -8 153 -56 153 l-24 0 -2 -125z"/>
<path d="M2660 2600 c-6 -12 -9 -74 -8 -157 l3 -138 35 0 35 0 3 144 c2 97 -1
148 -9 157 -17 20 -47 17 -59 -6z"/>
<path d="M799 1758 c0 -123 -1 -242 -2 -266 l-2 -42 47 0 c38 0 50 5 67 26 20
25 21 39 21 233 0 113 -3 216 -6 227 -7 26 -43 44 -89 44 l-35 0 -1 -222z"/>
<path d="M1214 1697 l-20 -122 39 -3 c22 -2 40 -2 42 0 3 4 -32 238 -37 243
-2 3 -13 -50 -24 -118z"/>
<path d="M1120 1061 l0 -81 33 0 c50 1 72 23 72 75 0 53 -17 73 -68 82 l-37 6
0 -82z"/>
<path d="M1750 1101 c0 -31 13 -39 38 -22 21 13 10 46 -16 49 -19 3 -22 -1
-22 -27z"/>
<path d="M1907 1094 c-4 -4 -7 -16 -7 -26 0 -13 7 -18 26 -18 21 0 25 4 22 22
-3 23 -27 35 -41 22z"/>
<path d="M1915 660 c-3 -5 -1 -10 4 -10 6 0 11 5 11 10 0 6 -2 10 -4 10 -3 0
-8 -4 -11 -10z"/>
<path d="M1892 605 c-11 -24 -10 -25 18 -25 25 0 30 4 30 25 0 18 -5 25 -18
25 -11 0 -24 -11 -30 -25z"/>
<path d="M1960 607 c0 -18 5 -27 15 -27 13 0 14 4 4 23 -17 33 -19 33 -19 4z"/>
<path d="M1864 549 c-9 -16 15 -29 54 -29 25 0 32 4 32 20 0 17 -7 20 -39 20
-22 0 -43 -5 -47 -11z"/>
<path d="M1970 540 c0 -22 7 -25 29 -11 16 10 6 31 -15 31 -8 0 -14 -9 -14
-20z"/>
<path d="M570 3029 c0 -5 5 -7 10 -4 6 3 10 8 10 11 0 2 -4 4 -10 4 -5 0 -10
-5 -10 -11z"/>
<path d="M855 3021 c-11 -10 -4 -19 13 -17 9 2 20 -4 24 -13 5 -12 7 -9 7 9 1
19 -4 26 -19 26 -12 0 -23 -2 -25 -5z"/>
<path d="M975 3020 c-16 -7 -17 -9 -3 -9 9 -1 20 4 23 9 7 11 7 11 -20 0z"/>
<path d="M1021 3011 c-10 -6 -9 -10 3 -14 8 -3 18 -2 21 3 8 13 -9 20 -24 11z"/>
<path d="M436 2935 c-3 -9 7 -14 29 -17 25 -3 35 0 38 12 3 12 -4 16 -29 17
-18 0 -35 -5 -38 -12z"/>
<path d="M545 2940 c-4 -6 -12 -7 -18 -4 -9 5 -9 4 -1 -6 13 -14 58 -4 49 11
-8 12 -22 12 -30 -1z"/>
</g>
</svg>
