<?xml version="1.0" standalone="no"?>
<!DOCTYPE svg PUBLIC "-//W3C//DTD SVG 20010904//EN"
 "http://www.w3.org/TR/2001/REC-SVG-20010904/DTD/svg10.dtd">
<svg version="1.0" xmlns="http://www.w3.org/2000/svg"
 width="1280.000000pt" height="720.000000pt" viewBox="0 0 1280.000000 720.000000"
 preserveAspectRatio="xMidYMid meet">

<g transform="translate(0.000000,720.000000) scale(0.100000,-0.100000)"
fill="#000000" stroke="none">
<path d="M5024 6788 c-3 -4 -8 -758 -11 -1675 -6 -1749 -4 -1881 37 -1996 20
-59 51 -117 63 -117 4 0 7 -6 7 -13 0 -32 109 -100 215 -134 31 -9 774 -7 785
3 3 4 15 354 15 466 0 1 -134 4 -297 7 -163 4 -299 9 -302 12 -7 7 -9 2389 -3
2396 3 2 134 6 292 8 169 1 291 7 297 13 10 10 12 460 2 487 -5 13 -46 15
-284 15 -169 0 -281 4 -285 10 -3 5 -6 122 -6 259 0 162 -4 253 -10 257 -15 9
-510 11 -515 2z"/>
<path d="M6655 6259 c-3 -8 -4 -127 -3 -264 l3 -250 287 -2 c158 -1 292 -4
298 -8 16 -10 14 -2377 -2 -2393 -9 -9 -88 -12 -294 -12 -170 0 -285 -4 -289
-10 -9 -14 -6 -983 3 -992 4 -4 117 -8 251 -8 192 -1 246 2 253 12 4 7 8 119
7 248 0 129 2 242 6 251 5 13 27 17 103 22 229 14 388 107 448 262 18 49 19
89 19 1450 l0 1400 -32 65 c-18 36 -49 82 -69 103 -37 40 -155 107 -187 107
-10 0 -26 4 -35 9 -9 5 -185 12 -389 16 -314 6 -374 5 -378 -6z"/>
<path d="M6323 3215 c-30 -18 -46 -37 -58 -69 -16 -42 -16 -46 3 -90 36 -79
118 -109 187 -66 45 28 65 62 65 109 0 51 -26 95 -71 121 -48 26 -75 25 -126
-5z"/>
<path d="M5560 1559 c-66 -7 -135 -33 -161 -59 -8 -8 -26 -33 -39 -55 -25 -39
-25 -44 -25 -260 0 -216 0 -221 25 -260 30 -50 61 -75 119 -97 40 -16 87 -18
351 -20 293 -1 307 0 350 20 92 44 120 89 120 194 0 58 -3 68 -17 69 -10 1
-60 1 -112 0 -97 0 -111 -6 -111 -43 0 -40 -36 -47 -232 -48 -200 -2 -218 2
-251 53 -21 34 -23 204 -2 249 31 63 50 68 257 68 201 0 201 0 232 -63 11 -20
19 -22 112 -25 96 -3 101 -2 111 20 15 33 -6 138 -34 177 -25 33 -101 72 -148
77 -79 7 -487 9 -545 3z"/>
<path d="M2232 1551 c-9 -5 -12 -31 -10 -92 l3 -84 155 -5 155 -5 3 -270 c2
-200 6 -271 15 -277 22 -14 203 -9 216 5 7 9 12 103 13 278 l3 264 150 5 150
5 7 75 c10 121 52 110 -430 110 -229 0 -423 -4 -430 -9z"/>
<path d="M3213 1552 c-15 -10 -20 -719 -5 -734 5 -5 56 -7 113 -6 l104 3 1 81
c0 44 4 86 8 92 5 9 63 12 206 12 l200 0 17 -27 c11 -16 19 -52 21 -95 l4 -68
98 0 c54 0 105 3 114 6 13 5 16 23 16 90 0 96 -23 156 -65 176 -32 14 -31 23
4 49 50 37 63 82 59 201 -3 92 -6 109 -28 142 -14 20 -41 47 -60 59 -34 22
-42 22 -415 25 -209 1 -386 -1 -392 -6z m648 -201 c18 -15 23 -28 23 -70 0
-85 -2 -85 -230 -89 -142 -3 -199 -1 -209 8 -11 9 -15 33 -15 85 0 39 3 75 7
78 3 4 95 7 204 7 177 0 199 -2 220 -19z"/>
<path d="M4257 1553 c-4 -3 -7 -129 -7 -279 0 -230 3 -280 16 -316 23 -58 66
-102 128 -130 49 -22 60 -22 321 -21 233 1 276 3 315 19 66 26 95 49 127 102
l28 47 3 278 c3 208 1 281 -8 292 -9 11 -35 15 -100 15 -49 0 -95 -3 -104 -6
-14 -5 -16 -35 -16 -234 0 -243 -6 -281 -50 -308 -16 -10 -69 -14 -189 -14
-182 -1 -206 5 -229 58 -8 16 -12 103 -12 258 0 204 -2 235 -16 240 -21 8
-199 8 -207 -1z"/>
<path d="M6463 1553 l-23 -4 0 -364 c0 -322 2 -364 16 -369 31 -12 204 -7 209
7 3 6 6 66 8 132 1 66 6 126 10 133 10 15 54 15 89 -1 14 -7 57 -40 95 -73 37
-34 84 -74 103 -90 19 -15 56 -47 82 -71 l47 -43 151 0 c120 0 150 3 150 14 0
7 -32 40 -71 72 -39 33 -77 64 -83 69 -6 6 -36 30 -66 55 -30 25 -60 49 -66
55 -6 5 -36 32 -67 59 -32 26 -57 54 -57 60 0 7 33 41 72 77 40 35 104 93 143
129 39 36 90 82 115 102 64 54 51 60 -118 56 l-140 -3 -63 -60 c-34 -33 -72
-69 -84 -80 -12 -11 -49 -46 -83 -77 -55 -53 -64 -58 -105 -58 -54 0 -55 3
-55 159 0 75 -4 106 -14 112 -13 9 -154 10 -195 2z"/>
<path d="M7526 1552 c-8 -13 -9 -720 -1 -732 8 -13 202 -13 210 0 3 5 6 43 6
85 0 63 4 77 19 85 11 6 117 10 255 10 216 0 239 2 273 20 55 29 67 41 93 90
21 40 23 58 23 160 0 164 -22 212 -119 263 -38 20 -56 21 -396 25 -215 2 -359
0 -363 -6z m624 -204 c27 -29 28 -106 1 -139 -19 -23 -24 -24 -201 -27 -129
-2 -186 0 -196 9 -19 15 -20 165 -1 172 6 3 94 6 194 6 175 1 183 0 203 -21z"/>
<path d="M8758 1548 c-9 -7 -40 -56 -68 -108 -29 -52 -67 -122 -85 -155 -18
-33 -52 -96 -75 -140 -23 -44 -55 -102 -70 -130 -15 -27 -44 -80 -64 -118 -21
-37 -34 -72 -31 -77 7 -12 224 -13 242 -2 7 4 22 30 34 57 12 28 27 53 33 57
6 4 113 8 237 8 l226 0 24 -47 c43 -85 38 -83 171 -83 75 0 118 4 118 10 0 13
-54 119 -88 174 -13 22 -42 73 -63 115 -22 42 -48 90 -58 106 -10 17 -36 64
-58 105 -142 265 -113 240 -278 240 -90 0 -136 -4 -147 -12z m171 -215 c5 -16
31 -66 56 -112 25 -46 44 -90 41 -97 -7 -17 -241 -20 -251 -4 -4 6 2 25 13 43
11 17 39 69 62 115 24 45 49 82 56 82 6 0 17 -12 23 -27z"/>
<path d="M9579 1547 c-12 -12 -14 -71 -12 -366 1 -194 5 -356 8 -362 4 -5 161
-9 393 -9 367 0 391 1 447 21 93 32 129 73 143 164 9 55 8 361 -1 408 -10 47
-67 107 -127 132 -41 18 -80 20 -441 23 -334 3 -398 1 -410 -11z m715 -200
c34 -27 45 -83 41 -199 -3 -100 -18 -124 -82 -135 -58 -10 -411 -10 -435 -1
-16 7 -18 25 -18 177 0 126 3 171 13 174 6 3 111 6 232 6 215 1 221 0 249 -22z"/>
</g>
</svg>
